<svg xmlns="http://www.w3.org/2000/svg" viewBox="0 0 480 320" fill="#fff" xmlns:v="https://vecta.io/nano"><path d="M76.2 175.5H52.5v-38.1h23.7v4.5H58.1v11.7h15.2v4.5H58.1V171h18.1v4.5zm46.2 0H116l-9.9-15.7-9.8 15.7h-6.2l13-19.7L91 137.4h6.4l9.1 14.3 9-14.3h6.2l-12.1 18.2 12.8 19.9zm41.2-1a27.69 27.69 0 0 1-9.6 1.7c-6 0-10.6-1.7-13.6-5-3.1-3.3-4.6-8.2-4.6-14.6 0-6.3 1.6-11.2 4.8-14.6s7.8-5.1 13.8-5.1c3.1 0 6 .5 8.8 1.5v4.6c-3.3-.8-6-1.2-8.1-1.2-4.6 0-8 1.1-10.1 3.4s-3.2 5.8-3.2 10.7v1.3c0 4.8 1 8.4 3.1 10.7s5.4 3.4 9.9 3.4c2.3 0 5.3-.5 9-1.4v4.6zm41.1 1h-23.6v-38.1h5.6v33.4h18v4.7zm45.6-13.9c0 4.8-1.3 8.4-3.9 11s-6.3 3.8-11.1 3.8-8.5-1.3-11.1-3.8-3.9-6.2-3.9-11v-24.2h5.6v24.7c0 3.1.8 5.4 2.4 7.1s3.9 2.5 7 2.5 5.4-.8 7-2.5 2.4-4 2.4-7.1v-24.7h5.6v24.2zm35.5-6.7c3 1.1 5.1 2.4 6.4 4s1.9 3.6 1.9 6c0 3.5-1.3 6.3-3.8 8.4s-5.9 3.1-10.1 3.1-7.9-.8-11-2.3v-4.4c3.8 1.3 7.5 1.9 10.9 1.9 2.6 0 4.6-.6 6.1-1.7s2.2-2.7 2.2-4.6c0-1.4-.4-2.5-1.3-3.4s-2.3-1.7-4.4-2.6l-5.3-2c-3-1.1-5.2-2.5-6.5-4.1-1.4-1.6-2-3.6-2-6.1 0-2 .5-3.9 1.5-5.5s2.5-2.8 4.4-3.8c1.9-.9 4.2-1.4 6.8-1.4 3.3 0 6.7.7 10.2 2v4.4c-3.7-1.1-7-1.7-9.8-1.7-2.4 0-4.2.5-5.5 1.5s-1.9 2.4-1.9 4.1c0 1.5.4 2.6 1.3 3.5s2.5 1.7 4.9 2.6l5 2.1zm32.6 20.6h-5.6v-38.1h5.6v38.1zm36.4 0h-6l-14-38.1h6.2l11 32.5 11-32.5h5.9l-14.1 38.1zm60.7-8.4c-1.4 3-3.4 5.3-6.1 6.9s-5.9 2.4-9.6 2.4c-3.6 0-6.8-.8-9.4-2.3-2.7-1.6-4.7-3.8-6.2-6.8s-2.2-6.6-2.2-10.8c0-4.1.7-7.6 2.1-10.6s3.4-5.3 6.1-6.9 5.9-2.4 9.6-2.4c5.5 0 9.9 1.8 13 5.3 3.2 3.5 4.8 8.4 4.8 14.6 0 4.1-.7 7.6-2.1 10.6zm-15.7 4.6c3.9 0 6.9-1.3 9-3.9 2-2.6 3.1-6.4 3.1-11.3s-1-8.7-3.1-11.3c-2-2.6-5-3.9-9-3.9s-7 1.3-9 3.9-3.1 6.3-3.1 11.3 1 8.8 3.1 11.3c2.1 2.6 5.1 3.9 9 3.9z"/></svg>